<svg width="88" height="25" viewBox="0 0 88 25" fill="none" xmlns="http://www.w3.org/2000/svg">
<circle cx="12.3113" cy="12.3113" r="12.3113" fill="#FF6B00"/>
<path d="M14.4468 8.90284V10.5348H10.9668V12.3948H13.6548V13.9548H10.9668V17.3868H8.91479V8.90284H14.4468Z" fill="white"/>
<path d="M37.24 9.516V11.148H33.76V13.008H36.448V14.568H33.76V18H31.708V9.516H37.24ZM45.9539 11.304V18H43.8899V16.788C43.6979 17.18 43.4099 17.492 43.0259 17.724C42.6499 17.956 42.2099 18.072 41.7059 18.072C40.9379 18.072 40.3259 17.816 39.8699 17.304C39.4219 16.792 39.1979 16.088 39.1979 15.192V11.304H41.2379V14.94C41.2379 15.396 41.3539 15.752 41.5859 16.008C41.8259 16.256 42.1459 16.38 42.5459 16.38C42.9619 16.38 43.2899 16.248 43.5299 15.984C43.7699 15.72 43.8899 15.344 43.8899 14.856V11.304H45.9539ZM50.9122 11.22C51.4242 11.22 51.8642 11.336 52.2322 11.568C52.6002 11.8 52.8682 12.116 53.0362 12.516V9.12H55.0882V18H53.0362V16.788C52.8682 17.188 52.6002 17.504 52.2322 17.736C51.8642 17.968 51.4242 18.084 50.9122 18.084C50.3602 18.084 49.8642 17.948 49.4242 17.676C48.9922 17.396 48.6482 16.996 48.3922 16.476C48.1442 15.956 48.0202 15.348 48.0202 14.652C48.0202 13.948 48.1442 13.34 48.3922 12.828C48.6482 12.308 48.9922 11.912 49.4242 11.64C49.8642 11.36 50.3602 11.22 50.9122 11.22ZM51.5722 13.02C51.1322 13.02 50.7762 13.164 50.5042 13.452C50.2402 13.74 50.1082 14.14 50.1082 14.652C50.1082 15.164 50.2402 15.564 50.5042 15.852C50.7762 16.14 51.1322 16.284 51.5722 16.284C52.0042 16.284 52.3562 16.136 52.6282 15.84C52.9082 15.544 53.0482 15.148 53.0482 14.652C53.0482 14.148 52.9082 13.752 52.6282 13.464C52.3562 13.168 52.0042 13.02 51.5722 13.02ZM57.309 9.42C57.309 9.108 57.421 8.852 57.645 8.652C57.869 8.444 58.165 8.34 58.533 8.34C58.901 8.34 59.197 8.444 59.421 8.652C59.645 8.852 59.757 9.108 59.757 9.42C59.757 9.724 59.645 9.98 59.421 10.188C59.197 10.388 58.901 10.488 58.533 10.488C58.165 10.488 57.869 10.388 57.645 10.188C57.421 9.98 57.309 9.724 57.309 9.42ZM59.553 11.304V18H57.501V11.304H59.553ZM80.4917 11.22C81.3397 11.22 82.0157 11.432 82.5197 11.856C83.0317 12.28 83.3517 12.84 83.4797 13.536H81.5597C81.5037 13.264 81.3757 13.052 81.1757 12.9C80.9837 12.74 80.7397 12.66 80.4437 12.66C80.2117 12.66 80.0357 12.712 79.9157 12.816C79.7957 12.912 79.7357 13.052 79.7357 13.236C79.7357 13.444 79.8437 13.6 80.0597 13.704C80.2837 13.808 80.6317 13.912 81.1037 14.016C81.6157 14.136 82.0357 14.26 82.3637 14.388C82.6917 14.508 82.9757 14.708 83.2157 14.988C83.4557 15.268 83.5757 15.644 83.5757 16.116C83.5757 16.5 83.4717 16.84 83.2637 17.136C83.0557 17.432 82.7557 17.664 82.3637 17.832C81.9717 18 81.5077 18.084 80.9717 18.084C80.0677 18.084 79.3437 17.884 78.7997 17.484C78.2557 17.084 77.9237 16.512 77.8037 15.768H79.7837C79.8157 16.056 79.9357 16.276 80.1437 16.428C80.3597 16.58 80.6357 16.656 80.9717 16.656C81.2037 16.656 81.3797 16.604 81.4997 16.5C81.6197 16.388 81.6797 16.244 81.6797 16.068C81.6797 15.836 81.5677 15.672 81.3437 15.576C81.1277 15.472 80.7717 15.364 80.2757 15.252C79.7797 15.148 79.3717 15.036 79.0517 14.916C78.7317 14.796 78.4557 14.604 78.2237 14.34C77.9917 14.068 77.8757 13.7 77.8757 13.236C77.8757 12.636 78.1037 12.152 78.5597 11.784C79.0157 11.408 79.6597 11.22 80.4917 11.22Z" fill="#222222"/>
<path d="M68.3297 14.472C68.3297 14.64 68.3097 14.824 68.2697 15.024H63.6257C63.6497 15.528 63.7777 15.892 64.0097 16.116C64.2417 16.332 64.5377 16.44 64.8977 16.44C65.2017 16.44 65.4537 16.364 65.6537 16.212C65.8537 16.06 65.9857 15.864 66.0497 15.624H68.2217C68.1337 16.096 67.9417 16.52 67.6457 16.896C67.3497 17.264 66.9737 17.556 66.5177 17.772C66.0617 17.98 65.5537 18.084 64.9937 18.084C64.3377 18.084 63.7537 17.948 63.2417 17.676C62.7377 17.396 62.3417 16.996 62.0537 16.476C61.7657 15.956 61.6217 15.348 61.6217 14.652C61.6217 13.948 61.7617 13.34 62.0417 12.828C62.3297 12.308 62.7297 11.912 63.2417 11.64C63.7537 11.36 64.3377 11.22 64.9937 11.22C65.6577 11.22 66.2417 11.356 66.7457 11.628C67.2497 11.9 67.6377 12.284 67.9097 12.78C68.1897 13.268 68.3297 13.832 68.3297 14.472ZM66.2537 14.16C66.2617 13.72 66.1417 13.392 65.8937 13.176C65.6537 12.952 65.3537 12.84 64.9937 12.84C64.6177 12.84 64.3057 12.952 64.0577 13.176C63.8097 13.4 63.6697 13.728 63.6377 14.16H66.2537ZM72.8354 11.22C73.6834 11.22 74.3594 11.432 74.8634 11.856C75.3754 12.28 75.6954 12.84 75.8234 13.536H73.9034C73.8474 13.264 73.7194 13.052 73.5194 12.9C73.3274 12.74 73.0834 12.66 72.7874 12.66C72.5554 12.66 72.3794 12.712 72.2594 12.816C72.1394 12.912 72.0794 13.052 72.0794 13.236C72.0794 13.444 72.1874 13.6 72.4034 13.704C72.6274 13.808 72.9754 13.912 73.4474 14.016C73.9594 14.136 74.3794 14.26 74.7074 14.388C75.0354 14.508 75.3194 14.708 75.5594 14.988C75.7994 15.268 75.9194 15.644 75.9194 16.116C75.9194 16.5 75.8154 16.84 75.6074 17.136C75.3994 17.432 75.0994 17.664 74.7074 17.832C74.3154 18 73.8514 18.084 73.3154 18.084C72.4114 18.084 71.6874 17.884 71.1434 17.484C70.5994 17.084 70.2674 16.512 70.1474 15.768H72.1274C72.1594 16.056 72.2794 16.276 72.4874 16.428C72.7034 16.58 72.9794 16.656 73.3154 16.656C73.5474 16.656 73.7234 16.604 73.8434 16.5C73.9634 16.388 74.0234 16.244 74.0234 16.068C74.0234 15.836 73.9114 15.672 73.6874 15.576C73.4714 15.472 73.1154 15.364 72.6194 15.252C72.1234 15.148 71.7154 15.036 71.3954 14.916C71.0754 14.796 70.7994 14.604 70.5674 14.34C70.3354 14.068 70.2194 13.7 70.2194 13.236C70.2194 12.636 70.4474 12.152 70.9034 11.784C71.3594 11.408 72.0034 11.22 72.8354 11.22ZM87.4759 15.948V18H85.3519V15.948H87.4759Z" fill="#FF6B00"/>
</svg>
