<svg width="20" height="20" viewBox="0 0 20 20" fill="none" xmlns="http://www.w3.org/2000/svg">
<path d="M15.0775 6.77933L12.4489 7.65549L10.65 4.95728C10.3415 4.49463 9.65942 4.4931 9.34998 4.95728L7.55112 7.65549L4.92249 6.77933C4.35501 6.58997 3.79166 7.08542 3.9093 7.67365C5.07034 13.2474 4.89105 13.1006 5.18784 13.3975C7.84119 16.0507 12.1585 16.0509 14.812 13.3975C15.1088 13.1007 14.9319 13.2362 16.0905 7.67365C16.2076 7.08878 15.6488 6.5889 15.0775 6.77933ZM13.5417 12.451C11.5433 14.2839 8.45657 14.2839 6.45828 12.451L5.70557 8.68729L7.62314 9.32648C7.95731 9.43802 8.32474 9.31183 8.5202 9.01871L10 6.79901L11.4798 9.01871C11.6751 9.31183 12.0425 9.43787 12.3769 9.32648L14.2944 8.68729L13.5417 12.451ZM10 0C4.47327 0 0 4.4725 0 10C0 15.5267 4.4725 20 10 20C15.5267 20 20 15.5275 20 10C20 4.47327 15.5275 0 10 0ZM10 18.4375C5.33676 18.4375 1.5625 14.6638 1.5625 10C1.5625 5.33676 5.33615 1.5625 10 1.5625C14.6632 1.5625 18.4375 5.33615 18.4375 10C18.4375 14.6632 14.6638 18.4375 10 18.4375Z" fill="#FF6B00"/>
</svg>
